<svg width="14" height="15" viewBox="0 0 14 15" fill="none" xmlns="http://www.w3.org/2000/svg">
<path id="Vector 121" d="M3.82996 7.90371L4.67559 8.13434C5.21392 8.28115 5.48309 8.35456 5.67087 8.54235C5.85865 8.73013 5.93206 8.99929 6.07888 9.53762L6.07888 9.53763L6.30951 10.3833C6.96622 12.7912 7.29457 13.9952 8.01592 14.0337C8.73727 14.0722 9.19202 12.9101 10.1015 10.5858L12.5976 4.20687C13.3118 2.3818 13.6689 1.46927 13.2064 1.00681C12.7439 0.54435 11.8314 0.901428 10.0063 1.61558L3.6274 4.1117C1.30312 5.02119 0.140987 5.47594 0.179521 6.19729C0.218054 6.91864 1.42202 7.247 3.82996 7.90371Z" fill="#DEC71C"/>
</svg>
