<svg width="17" height="11" viewBox="0 0 17 11" fill="none" xmlns="http://www.w3.org/2000/svg">
<g id="Group 111">
<path id="Union" fill-rule="evenodd" clip-rule="evenodd" d="M2.88257 1.60822H12.9203C13.4726 1.60822 13.9203 2.05593 13.9203 2.60822V8.95184C13.9203 9.50413 13.4726 9.95184 12.9203 9.95184H2.88257C2.33028 9.95184 1.88257 9.50413 1.88257 8.95184V2.60821C1.88257 2.05593 2.33028 1.60822 2.88257 1.60822ZM0.882568 2.60821C0.882568 1.50365 1.778 0.608215 2.88257 0.608215H12.9203C14.0249 0.608215 14.9203 1.50365 14.9203 2.60822V4.92701L16.0743 3.59458C16.3773 3.24463 16.9522 3.45897 16.9522 3.92191V7.63814C16.9522 8.10108 16.3773 8.31542 16.0743 7.96547L14.9203 6.63305V8.95184C14.9203 10.0564 14.0249 10.9518 12.9203 10.9518H2.88257C1.778 10.9518 0.882568 10.0564 0.882568 8.95184V2.60821ZM3.83787 2.82471C3.83787 3.23276 3.50709 3.56354 3.09904 3.56354C2.691 3.56354 2.36021 3.23276 2.36021 2.82471C2.36021 2.41667 2.691 2.08588 3.09904 2.08588C3.50709 2.08588 3.83787 2.41667 3.83787 2.82471ZM2.72963 8.73535C2.5256 8.73535 2.36021 8.90075 2.36021 9.10477C2.36021 9.30879 2.5256 9.47418 2.72963 9.47418H5.68495C5.88897 9.47418 6.05436 9.30879 6.05436 9.10477C6.05436 8.90075 5.88897 8.73535 5.68495 8.73535H2.72963Z" fill="#274C77"/>
</g>
</svg>
