<svg width="80" height="80" viewBox="0 0 80 80" fill="none" xmlns="http://www.w3.org/2000/svg">
<g id="Group 167">
<path id="Vector" d="M68.8549 50.4989L68.854 29.1383C68.854 28.6043 68.4534 28.2038 67.9194 28.2038L52.967 28.2031L52.967 26.6011C52.967 26.0671 52.5664 25.6666 52.0324 25.6665L19.7245 25.3982C13.0494 25.3979 7.44243 31.0049 7.44269 37.68L7.44287 42.219C7.17609 45.4233 8.37763 48.4938 10.7809 50.897C13.184 53.3001 16.2547 54.5018 19.4587 54.502L51.7666 54.2362C52.3006 54.2362 52.7011 53.8357 52.7011 53.3017L52.701 51.6996L67.6533 51.7004C68.1873 51.4334 68.7214 50.8994 68.8549 50.4989ZM60.4437 39.1508C60.3101 39.0173 60.0431 38.7503 60.0431 38.4833L60.043 35.8132C60.043 35.2792 60.4435 34.8787 60.9775 34.8787L63.6476 34.8788C64.1816 34.8788 64.5822 35.2793 64.5822 35.8133L64.5822 38.4834C64.5822 39.0174 64.1817 39.4179 63.6477 39.4179L60.9777 39.4178C60.8442 39.5513 60.5772 39.2843 60.4437 39.1508ZM63.7815 44.8916L61.1114 44.8915C60.8444 44.8914 60.5774 44.6244 60.4439 44.4909C60.3104 44.3574 60.0433 44.0904 60.0433 43.8234L60.0433 41.1533C60.0433 40.6193 60.4438 40.2188 60.9778 40.2188L63.6478 40.2189C64.1818 40.2189 64.5823 40.6195 64.5824 41.1534L64.5825 43.8235C64.716 44.224 64.182 44.758 63.7815 44.8916Z" fill="url(#paint0_linear_444_772)"/>
<path id="CFCA" d="M22.8928 41.9691V43.1591H20.5628C20.1228 43.1591 19.7861 43.1357 19.5528 43.0891C18.7328 42.9291 18.1494 42.4724 17.8028 41.7191C17.5761 41.2124 17.4628 40.5857 17.4628 39.8391C17.4628 38.9457 17.6361 38.2191 17.9828 37.6591C18.2361 37.2524 18.5728 36.9557 18.9928 36.7691C19.4194 36.5824 19.9661 36.4891 20.6328 36.4891H22.8928V37.6791H20.7928C20.1594 37.6791 19.6961 37.8491 19.4028 38.1891C19.1561 38.4691 19.0328 38.9757 19.0328 39.7091C19.0328 40.6957 19.2228 41.3424 19.6028 41.6491C19.8694 41.8624 20.2861 41.9691 20.8528 41.9691H22.8928ZM30.1972 39.2191V40.4091H26.2172V43.1591H24.8072V39.6791C24.8139 38.6791 24.9072 38.0224 25.0872 37.7091C25.3139 37.2691 25.6406 36.9557 26.0672 36.7691C26.5006 36.5824 27.1072 36.4891 27.8872 36.4891H30.1972V37.6791H28.0672C27.4072 37.6924 26.9839 37.7457 26.7972 37.8391C26.4239 37.9924 26.2306 38.3324 26.2172 38.8591V39.2191H30.1972ZM37.3147 41.9691V43.1591H34.9847C34.5447 43.1591 34.208 43.1357 33.9747 43.0891C33.1547 42.9291 32.5713 42.4724 32.2247 41.7191C31.998 41.2124 31.8847 40.5857 31.8847 39.8391C31.8847 38.9457 32.058 38.2191 32.4047 37.6591C32.658 37.2524 32.9947 36.9557 33.4147 36.7691C33.8413 36.5824 34.388 36.4891 35.0547 36.4891H37.3147V37.6791H35.2147C34.5813 37.6791 34.118 37.8491 33.8247 38.1891C33.578 38.4691 33.4547 38.9757 33.4547 39.7091C33.4547 40.6957 33.6447 41.3424 34.0247 41.6491C34.2913 41.8624 34.708 41.9691 35.2747 41.9691H37.3147ZM38.6591 43.1591L41.4191 36.4891H43.0491L45.8091 43.1591H44.1491L43.4991 41.6191H40.9691L40.3191 43.1591H38.6591ZM42.2391 38.0991L41.2891 40.4291H43.1891L42.2391 38.0991Z" fill="white"/>
</g>
<defs>
<linearGradient id="paint0_linear_444_772" x1="39.7319" y1="52.0148" x2="39.7319" y2="27.9483" gradientUnits="userSpaceOnUse">
<stop stop-color="#274C77"/>
<stop offset="1" stop-color="#2F5A8C" stop-opacity="0.6"/>
</linearGradient>
</defs>
</svg>
