<svg width="15" height="15" viewBox="0 0 15 15" fill="none" xmlns="http://www.w3.org/2000/svg">
<path id="Vector" d="M1.26586 14.3079C4.59157 12.5174 7.59424 9.82259 11.003 4.93116C11.16 4.7064 10.5923 5.76012 10.4712 6.00469C8.81481 9.35249 6.68605 11.4904 5.32224 12.778C5.10891 12.9761 5.16148 13.319 5.42129 13.4561C6.65557 14.1091 9.57748 15.1437 11.7847 11.3053C13.739 7.90564 14.0491 2.7125 14.1474 0.221069C14.1649 -0.217788 13.8861 0.0755456 13.5889 0.419926C12.5078 1.67174 9.42586 1.94069 7.25062 3.12773C2.74776 5.58488 2.36529 8.72316 3.44262 11.6077C3.48045 11.7083 3.48172 11.8189 3.44621 11.9203C3.41069 12.0217 3.34065 12.1074 3.24834 12.1624C2.63577 12.5373 1.93634 13.3814 0.90548 13.4409C-0.772997 13.5376 0.200718 14.8793 1.26662 14.3079H1.26586Z" fill="#DEC71C"/>
</svg>
