<svg width="13" height="14" viewBox="0 0 13 14" fill="none" xmlns="http://www.w3.org/2000/svg">
<path id="Union" fill-rule="evenodd" clip-rule="evenodd" d="M7.69076 0.187575C7.27534 0.0653623 6.83651 0 6.38378 0C4.02592 0 2.04512 1.7729 1.78474 4.11634L1.5987 5.79069C1.5112 6.57816 1.25489 7.3375 0.847244 8.01691L0.420175 8.72869L0.385645 8.78616C0.241371 9.0261 0.122162 9.22437 0.0680301 9.39861C-0.188591 10.2247 0.304741 11.096 1.1451 11.3009C1.32236 11.3441 1.55369 11.3439 1.83367 11.3437H1.83368L1.90073 11.3436H3.77683C3.93311 11.9499 4.25175 12.4963 4.7008 12.8983C5.17311 13.3211 5.7642 13.5601 6.38361 13.5601C7.00303 13.5601 7.59412 13.3211 8.06643 12.8983C8.51548 12.4963 8.83412 11.9499 8.9904 11.3436H10.8668L10.9339 11.3437H10.9339C11.2139 11.3439 11.4452 11.3441 11.6225 11.3009C12.4628 11.096 12.9562 10.2247 12.6995 9.39861C12.6454 9.22437 12.5262 9.02611 12.3819 8.78616L12.3474 8.72869L11.9203 8.0169C11.5506 7.40078 11.3054 6.71892 11.1977 6.00996C10.8872 6.1155 10.5569 6.17836 10.2139 6.19155C10.3436 7.01794 10.6315 7.81254 11.0628 8.5314L11.4899 9.24318C11.6873 9.57214 11.7316 9.65372 11.7446 9.69529C11.8301 9.97064 11.6657 10.2611 11.3855 10.3294C11.3432 10.3397 11.2505 10.3436 10.8668 10.3436H1.90073C1.51711 10.3436 1.42432 10.3397 1.38203 10.3294C1.10191 10.2611 0.937467 9.97064 1.02301 9.69529C1.03592 9.65372 1.0803 9.57214 1.27767 9.24318L1.70474 8.5314C2.18637 7.72868 2.4892 6.83152 2.59258 5.90112L2.77862 4.22677C2.98273 2.38977 4.53547 1 6.38378 1C6.60102 1 6.81418 1.0192 7.02155 1.05607C7.19801 0.731918 7.42455 0.43896 7.69076 0.187575ZM5.3678 12.1532C5.13581 11.9455 4.94727 11.6677 4.82431 11.3436H7.94292C7.81996 11.6677 7.63142 11.9455 7.39943 12.1532C7.09755 12.4235 6.74005 12.5601 6.38361 12.5601C6.02718 12.5601 5.66968 12.4235 5.3678 12.1532ZM10.9546 3.90599C10.7093 4.0871 10.4061 4.19415 10.0778 4.19415C9.26168 4.19415 8.60011 3.53258 8.60011 2.71649C8.60011 1.9004 9.26168 1.23883 10.0778 1.23883C10.8939 1.23883 11.5554 1.9004 11.5554 2.71649C11.5554 3.20429 11.3191 3.63688 10.9546 3.90599Z" fill="#274C77"/>
</svg>
