<svg width="25" height="38" viewBox="0 0 25 38" fill="none" xmlns="http://www.w3.org/2000/svg">
<g id="Group 155">
<path id="Subtract" fill-rule="evenodd" clip-rule="evenodd" d="M0.857727 4C0.857727 1.79086 2.64859 0 4.85773 0H20.9243C23.1334 0 24.9243 1.79086 24.9243 4V33.2644C24.9243 35.4735 23.1334 37.2644 20.9243 37.2644H4.85772C2.64858 37.2644 0.857727 35.4735 0.857727 33.2644V4ZM3.82459 5.43434C3.82459 5.00558 4.17217 4.658 4.60093 4.658C5.02969 4.658 5.37727 5.00558 5.37727 5.43434V31.8299C5.37727 32.2587 5.02969 32.6063 4.60093 32.6063C4.17217 32.6063 3.82459 32.2587 3.82459 31.8299V5.43434ZM9.70629 4.658C8.60172 4.658 7.70629 5.55343 7.70629 6.658V30.6063C7.70629 31.7108 8.60173 32.6063 9.7063 32.6063H19.6804C20.785 32.6063 21.6804 31.7108 21.6804 30.6063V6.658C21.6804 5.55343 20.785 4.658 19.6804 4.658H9.70629Z" fill="#DCDCDC"/>
</g>
</svg>
