<?xml version="1.0" encoding="UTF-8"?>
<svg width="34px" height="7px" viewBox="0 0 34 7" version="1.1" xmlns="http://www.w3.org/2000/svg" xmlns:xlink="http://www.w3.org/1999/xlink">
    <title>zhankai</title>
    <g id="页面-1" stroke="none" stroke-width="1" fill="none" fill-rule="evenodd">
        <g id="大屏7-模型模式" transform="translate(-980.000000, -1037.000000)">
            <g id="闸门控制" transform="translate(554.000000, 810.000000)">
                <g id="zhankai" transform="translate(443.000000, 230.666667) rotate(-270.000000) translate(-443.000000, -230.666667) translate(440.000000, 213.666667)">
                    <path d="M3,-8.57252759e-14 L6,-8.57252759e-14 L6,-8.57252759e-14 L6,34 L3,34 C1.34314575,34 2.02906125e-16,32.6568542 0,31 L0,3 C-2.02906125e-16,1.34314575 1.34314575,-8.40886491e-14 3,-8.57252759e-14 Z" id="矩形" fill="#29B1FF" transform="translate(3.000000, 17.000000) rotate(-360.000000) translate(-3.000000, -17.000000) "></path>
                    <g id="翻页2" transform="translate(1.904645, 15.000000)" fill="#112520" fill-rule="nonzero">
                        <path d="M1.5955985,2 L0.0834497012,3.5121488 C-0.0278165671,3.62341507 -0.0278165671,3.80528403 0.0834497012,3.9165503 C0.194715969,4.02781657 0.37658493,4.02781657 0.487851198,3.9165503 L2.20197732,2.20242417 C2.22968218,2.17471932 2.25068424,2.14254594 2.26453667,2.1081383 C2.2886667,2.04781322 2.29179467,1.98078534 2.27347372,1.91867285 C2.2707926,1.9097358 2.26766464,1.9012456 2.26453667,1.89230855 C2.25068424,1.85790091 2.22968218,1.82572753 2.20197732,1.79802268 L0.487851198,0.0834497012 C0.37658493,-0.0278165671 0.194715969,-0.0278165671 0.0834497012,0.0834497012 C-0.0278165671,0.194715969 -0.0278165671,0.37658493 0.0834497012,0.487851198 L1.5955985,2 Z" id="路径" transform="translate(1.142623, 2.000000) scale(-1, -1) translate(-1.142623, -2.000000) "></path>
                    </g>
                </g>
            </g>
        </g>
    </g>
</svg>