<?xml version="1.0" encoding="UTF-8"?>
<svg width="36px" height="33px" viewBox="0 0 36 33" version="1.1" xmlns="http://www.w3.org/2000/svg" xmlns:xlink="http://www.w3.org/1999/xlink">
    <title>sbzx_sptx</title>
    <defs>
        <linearGradient x1="50%" y1="0%" x2="50%" y2="100%" id="linearGradient-1">
            <stop stop-color="#FFFFFF" offset="0%"></stop>
            <stop stop-color="#00D4FF" offset="100%"></stop>
        </linearGradient>
    </defs>
    <g id="页面-1" stroke="none" stroke-width="1" fill="none" fill-rule="evenodd">
        <g id="大屏4k" transform="translate(-3915.000000, -1349.000000)" fill="url(#linearGradient-1)" fill-rule="nonzero">
            <g id="设备在线" transform="translate(3072.000000, 998.000000)">
                <g id="图标备份-5" transform="translate(763.891886, 331.000000)">
                    <g id="编组-5" transform="translate(79.321282, 20.000000)">
                        <path d="M16.7553712,0.5925294 L31.0706505,13.7277417 C31.9315342,14.5180195 31.9315342,15.79906 31.0706505,16.5893378 L29.0815291,18.415781 L34.4490696,20.074252 C34.8107454,20.1859595 35.0837679,20.4613485 35.1708713,20.8023101 C35.2579747,21.1432717 35.146774,21.5013256 34.8768852,21.7489132 L25.5024336,30.3519156 C25.2326444,30.5995946 24.842483,30.7016443 24.4709466,30.6217089 C24.0994103,30.5417735 23.7993266,30.2912187 23.6776021,29.9593062 L21.8693098,25.0334751 L20.0345548,26.7172432 C19.1734111,27.5072825 17.777497,27.5072825 16.9163533,26.7172432 L11.6414325,21.8774219 L9.85519265,25.4477586 C9.75114183,25.6122668 9.62233829,25.7624914 9.47258451,25.8939976 C9.27796522,26.0724161 9.04469037,26.2113427 8.78785922,26.3017852 C8.3951181,26.4502709 7.96406443,26.4917261 7.54631221,26.421187 L4.40716099,26.421187 L4.40716099,30.3224904 C4.38036584,31.4217207 3.40168076,32.3 2.2035805,32.3 C1.00548023,32.3 0.0267951516,31.4217207 0,30.3224904 L0,20.1056203 C0.0267951516,19.00639 1.00548023,18.1281107 2.2035805,18.1281107 C3.40168076,18.1281107 4.38036584,19.00639 4.40716099,20.1056203 L4.40716099,22.816871 L6.34666471,22.816871 L8.36996727,18.8741625 L2.60107399,13.582031 C2.18698159,13.2024379 1.95430815,12.6873455 1.95430815,12.150221 C1.95430815,11.6130964 2.18698159,11.0980041 2.60107399,10.718411 L13.6371697,0.5925294 C14.4983135,-0.1975098 15.8942275,-0.1975098 16.7553712,0.5925294 Z M24.2893116,12.2754523 C23.6968059,12.2733797 23.1276918,12.4875016 22.707299,12.8706794 C22.2900986,13.2564352 22.05699,13.7784981 22.0592481,14.3219969 C22.0615393,14.8654956 22.2990108,15.3858998 22.7194277,15.7687033 L22.7194277,15.7676914 C23.1364113,16.153646 23.7033992,16.3717578 24.2956349,16.3740531 C24.8878706,16.3763123 25.4568302,16.1625683 25.8773234,15.779834 C26.2946693,15.394212 26.5279757,14.8722247 26.5259215,14.3287261 C26.52384,13.7852276 26.2865673,13.2647481 25.8662973,12.8818101 C25.4491231,12.4956812 24.8818173,12.2775551 24.2893116,12.2754523 Z" id="sbzx_sptx"></path>
                    </g>
                </g>
            </g>
        </g>
    </g>
</svg>