<?xml version="1.0" encoding="UTF-8"?>
<svg width="10px" height="10px" viewBox="0 0 10 10" version="1.1" xmlns="http://www.w3.org/2000/svg" xmlns:xlink="http://www.w3.org/1999/xlink">
    <title>sbzx_szjc</title>
    <g id="页面-1" stroke="none" stroke-width="1" fill="none" fill-rule="evenodd">
        <g id="大屏7-地图模式" transform="translate(-1293.000000, -285.000000)" fill="#FFFFFF" fill-rule="nonzero">
            <path d="M1298.00608,285 C1298.00608,285 1298.97869,285.884778 1300.06572,287.0406 C1299.706,287.365252 1296.52285,290.274097 1296.52285,291.552666 C1296.52285,292.907388 1298.12408,294.005093 1300.09862,294.005093 C1300.77802,294.005093 1301.41307,293.875333 1301.95373,293.649379 C1300.63937,294.830147 1298.39989,295.296075 1296.37862,294.809291 C1294.35735,294.322507 1293.00018,292.990397 1293,291.493046 C1293,289.646242 1297.55123,285.418162 1297.9746,285.028847 L1298.00608,285 L1298.00608,285 Z M1300.49696,288.235 C1300.49696,288.235 1303,290.508568 1303,291.475511 C1303,292.441953 1301.87935,293.225528 1300.49696,293.225528 C1299.11603,293.226358 1297.9955,292.442929 1297.99392,291.475511 C1297.99392,290.509069 1300.49696,288.235 1300.49696,288.235 Z" id="sbzx_szjc"></path>
        </g>
    </g>
</svg>