<?xml version="1.0" encoding="UTF-8"?>
<svg width="10px" height="10px" viewBox="0 0 10 10" version="1.1" xmlns="http://www.w3.org/2000/svg" xmlns:xlink="http://www.w3.org/1999/xlink">
    <title>sbzx_swsq</title>
    <g id="页面-1" stroke="none" stroke-width="1" fill="none" fill-rule="evenodd">
        <g id="大屏7-地图模式" transform="translate(-1293.000000, -255.000000)" fill="#FFFFFF" fill-rule="nonzero">
            <path d="M1301.00339,256.778432 L1300.99218,256.762712 C1300.86338,256.598835 1300.66271,256.501009 1300.44841,256.497627 C1300.21768,256.495348 1300.00157,256.605445 1299.87477,256.789864 C1299.67864,257.060507 1299.48493,257.332748 1299.29366,257.606556 C1298.79195,256.844811 1298.27472,256.09252 1297.74228,255.350113 L1297.73182,255.335823 C1297.57271,255.130507 1297.32368,255.006653 1297.05659,255 C1296.77224,255.00062 1296.5066,255.135699 1296.34701,255.360831 C1296.01864,255.814582 1295.69495,256.271418 1295.37599,256.731274 C1295.24304,256.43332 1295.01298,256.089638 1294.67388,255.61377 L1294.66267,255.599479 C1294.56497,255.472211 1294.40872,255.398295 1294.24369,255.401279 C1294.07866,255.404263 1293.92543,255.483775 1293.83283,255.614484 C1293.31446,256.333288 1293,256.804869 1293,257.300743 C1293.00187,257.953182 1293.54757,258.485026 1294.22945,258.498988 C1293.56319,259.64793 1293.26367,260.511781 1293.26367,261.37706 C1293.26298,263.025156 1294.42577,264.465805 1296.09274,264.88219 C1297.75972,265.298575 1299.51035,264.585652 1300.35206,263.147632 L1300.43945,263.147632 C1301.85289,263.146057 1302.99829,262.050362 1302.99997,260.69827 C1303.00517,259.708664 1302.3643,258.69548 1301.00339,256.778432 L1301.00339,256.778432 Z M1293.7925,257.30503 C1293.7925,257.097821 1293.93516,256.832735 1294.25335,256.37473 C1294.56856,256.836308 1294.72093,257.111396 1294.72093,257.30503 C1294.72093,257.550679 1294.51276,257.749817 1294.25597,257.749817 C1293.99917,257.749817 1293.791,257.550679 1293.791,257.30503 L1293.7925,257.30503 L1293.7925,257.30503 Z M1297.0536,261.364913 C1298.72673,260.622531 1299.53342,261.364913 1299.53342,261.364913 C1299.53342,262.675156 1298.42329,263.737428 1297.0536,263.737823 L1297.0536,263.737823 C1295.68317,263.737108 1294.57271,262.675156 1294.57229,261.364913 C1294.57229,261.364913 1295.37973,262.106582 1297.0536,261.364913 Z M1300.44169,257.332182 C1301.69131,259.097038 1302.21491,259.970177 1302.21491,260.7047 C1302.21361,261.547462 1301.56493,262.261164 1300.69266,262.379527 C1300.78976,262.055136 1300.83981,261.718599 1300.83981,261.380633 C1300.83981,260.480342 1300.48352,259.557901 1299.7448,258.32536 C1299.9293,258.053129 1300.15188,257.736598 1300.44169,257.332182 Z M1295.79876,260.664687 C1296.41572,260.677549 1297.0312,260.732566 1297.64069,260.830455 C1296.96323,260.929058 1296.50984,261.344907 1295.72556,261.382062 C1295.15789,261.382062 1294.69853,261.227012 1294.69853,261.034092 C1294.69853,260.841887 1295.23184,260.664687 1295.79876,260.664687 Z" id="sbzx_swsq"></path>
        </g>
    </g>
</svg>