<?xml version="1.0" encoding="UTF-8"?>
<svg width="10px" height="10px" viewBox="0 0 10 10" version="1.1" xmlns="http://www.w3.org/2000/svg" xmlns:xlink="http://www.w3.org/1999/xlink">
    <title>sbzx_sl</title>
    <g id="页面-1" stroke="none" stroke-width="1" fill="none" fill-rule="evenodd">
        <g id="大屏7-地图模式" transform="translate(-1293.000000, -465.000000)" fill-rule="nonzero">
            <g id="sbzx_sl" transform="translate(1293.000000, 465.000000)">
                <path d="M1.53214286,4.50384615 C1.67142857,4.65384615 1.89642857,4.65384615 2.03571428,4.50384615 L2.50000001,4.00384616 L2.96071429,4.5 C3.1,4.65 3.325,4.65 3.46428572,4.5 L3.92857143,4.00384616 L4.38928571,4.5 C4.46071429,4.57692308 4.55,4.61538462 4.64285715,4.61538462 C4.73571429,4.61538462 4.825,4.57692308 4.89642857,4.50384615 L5.61071429,3.73461538 C5.70066866,3.63774144 5.73579984,3.4965446 5.70287426,3.36421234 C5.66994867,3.23188007 5.5739685,3.12851681 5.45108854,3.09305849 C5.32820858,3.05760016 5.19709723,3.09543375 5.10714286,3.19230769 L4.64285715,3.68846153 L4.18214286,3.19230769 C4.11541265,3.12029688 4.02482482,3.07982921 3.93035715,3.07982921 C3.83588948,3.07982921 3.74530165,3.12029688 3.67857143,3.19230769 L3.21428571,3.68846153 L2.75357143,3.19230769 C2.68684121,3.12029688 2.59625338,3.07982921 2.50178571,3.07982921 C2.40731804,3.07982921 2.31673021,3.12029688 2.25,3.19230769 L1.78571429,3.68846153 L1.325,3.19230769 C1.23504563,3.09543374 1.10393428,3.05760016 0.981054318,3.09305848 C0.858174359,3.12851681 0.762194186,3.23188007 0.729268601,3.36421233 C0.696343016,3.4965446 0.7314742,3.63774144 0.821428574,3.73461538 L1.53214286,4.50384615 L1.53214286,4.50384615 Z M1.53214286,6.81153846 C1.67142857,6.96153846 1.89642857,6.96153846 2.03571428,6.81153846 L2.50000001,6.31153847 L2.96071429,6.80769231 C3.03214287,6.88461539 3.12142858,6.92307693 3.21428571,6.92307693 C3.30714285,6.92307693 3.39642857,6.88461539 3.46785714,6.81153846 L4.18214286,6.04230769 C4.27209724,5.94543375 4.30722842,5.80423691 4.27430283,5.67190464 C4.24137725,5.53957238 4.14539708,5.43620912 4.02251712,5.4007508 C3.89963716,5.36529247 3.7685258,5.40312606 3.67857143,5.5 L3.21428571,5.99615384 L2.75357143,5.5 C2.68684121,5.42798919 2.59625338,5.38752152 2.50178571,5.38752152 C2.40731804,5.38752152 2.31673021,5.42798919 2.25,5.5 L1.78571429,5.99615384 L1.325,5.5 C1.23504563,5.40312606 1.10393428,5.36529248 0.981054321,5.4007508 C0.858174364,5.43620912 0.762194192,5.53957239 0.729268607,5.67190465 C0.696343021,5.80423691 0.731474203,5.94543375 0.821428574,6.04230769 L1.53214286,6.81153846 Z M9.64285714,0 C9.83928571,0 10,0.173076923 10,0.384615381 L10,0.384615381 L10,9.61538462 C10,9.82692308 9.8392857,10 9.64285714,10 L9.64285714,10 L0.357142864,10 C0.160714286,10 0,9.82692308 0,9.61538462 L0,9.61538462 L0,8.72692308 C0,8.51538462 0.160714296,8.3423077 0.357142864,8.3423077 C2.58571429,8.3423077 4.59642857,7.18846154 5.93571428,5.38461538 L5.93571428,5.38461538 L5,5.38461538 L5,4.61538462 L6.43571428,4.61538462 C7.15,3.38461538 7.58571428,1.93461538 7.61428571,0.37692307 C7.61785714,0.169230773 7.77857142,0 7.97142857,0 L7.97142857,0 Z" id="形状" fill="#FFFFFF"></path>
                <path d="M9.28571428,9.23076924 L0.714285717,9.23076924 L0.714285717,9.10384616 C2.15357143,9.03076924 3.49285714,8.51923077 4.64285715,7.69230769 L7.49999999,7.69230769 L7.49999999,7.88461539 C7.49999999,8.03076924 7.57499999,8.16153846 7.69642857,8.22692308 C7.74642858,8.25384616 7.80000001,8.26923076 7.85714286,8.26923076 C7.93214286,8.26923076 8.00714286,8.24230769 8.07142857,8.1923077 L8.78571428,7.61538462 C8.87499999,7.5423077 8.92857142,7.42692309 8.92857143,7.30769231 C8.92857144,7.18846153 8.875,7.07307693 8.78571428,7 L8.07142857,6.42307692 C7.96279888,6.33543357 7.81732336,6.32200506 7.69642857,6.38846154 C7.57500001,6.45384615 7.50000001,6.58461538 7.49999999,6.73076923 L7.49999999,6.92307693 L5.55714286,6.92307693 C6.0320315,6.46424212 6.45625659,5.94801862 6.82142857,5.38461538 L7.49999999,5.38461538 L7.49999999,5.57692308 C7.49999999,5.72307693 7.57499999,5.85384615 7.69642857,5.91923077 C7.74642858,5.94615385 7.80000001,5.96153847 7.85714286,5.96153846 C7.93214286,5.96153846 8.00714286,5.93461539 8.07142857,5.88461539 L8.78571428,5.30769231 C8.87499999,5.23461539 8.92857142,5.11923078 8.92857143,5 C8.92857144,4.88076922 8.875,4.76538462 8.78571428,4.69230769 L8.07142857,4.11538461 C7.96279888,4.02774126 7.81732336,4.01431275 7.69642857,4.08076923 C7.57500001,4.14615385 7.50000001,4.27692307 7.49999999,4.42307692 L7.49999999,4.61538462 L7.27142857,4.61538462 C7.86428571,3.46538461 8.23571428,2.16153846 8.31428571,0.769230762 L9.28571428,0.769230762 L9.28571428,9.23076924 Z" id="路径" fill="#000000" opacity="0.198079427"></path>
            </g>
        </g>
    </g>
</svg>