<?xml version="1.0" encoding="UTF-8"?>
<svg width="28px" height="26px" viewBox="0 0 28 26" version="1.1" xmlns="http://www.w3.org/2000/svg" xmlns:xlink="http://www.w3.org/1999/xlink">
    <title>sbzx_szjc</title>
    <defs>
        <linearGradient x1="50%" y1="0%" x2="50%" y2="100%" id="linearGradient-1">
            <stop stop-color="#FFFFFF" offset="0%"></stop>
            <stop stop-color="#00D4FF" offset="100%"></stop>
        </linearGradient>
    </defs>
    <g id="页面-1" stroke="none" stroke-width="1" fill="none" fill-rule="evenodd">
        <g id="大屏4k" transform="translate(-3320.000000, -1035.000000)" fill="url(#linearGradient-1)" fill-rule="nonzero">
            <g id="设备在线" transform="translate(3072.000000, 998.000000)">
                <g id="图标备份" transform="translate(187.063049, 21.000000)">
                    <g id="水质" transform="translate(61.866667, 16.000000)">
                        <path d="M13.4136213,0 C13.4136213,0 15.8910213,2.11282268 18.7145287,4.90953113 L18.931,5.124 L18.8747401,5.17365317 C17.6718607,6.19664005 9.43935693,13.3048782 9.43935693,16.4602967 C9.43935693,19.8633583 13.7297995,22.6207946 19.020515,22.6207946 C20.840935,22.6207946 22.5425487,22.2948357 23.9912198,21.7272393 C20.4694325,24.6933291 14.4688237,25.8637397 9.05289782,24.6409388 C3.63697197,23.4181379 0.000492650017,20.0718775 0,16.3105318 C0,11.4450599 13.4136213,0 13.4136213,0 Z M20.087856,8.12631973 C20.087856,8.12631973 26.7946667,13.8375229 26.7946667,16.2664833 C26.7946667,18.6941851 23.7919317,20.6625256 20.087856,20.6625256 C16.3877087,20.6646104 13.3852764,18.6966385 13.3810454,16.2664833 C13.3810454,13.8387814 20.087856,8.12631973 20.087856,8.12631973 Z" id="sbzx_szjc"></path>
                    </g>
                </g>
            </g>
        </g>
    </g>
</svg>