<?xml version="1.0" encoding="UTF-8"?>
<svg width="10px" height="10px" viewBox="0 0 10 10" version="1.1" xmlns="http://www.w3.org/2000/svg" xmlns:xlink="http://www.w3.org/1999/xlink">
    <title>sbzx_aqjc</title>
    <g id="页面-1" stroke="none" stroke-width="1" fill="none" fill-rule="evenodd">
        <g id="大屏7-地图模式" transform="translate(-1293.000000, -345.000000)" fill="#FFFFFF" fill-rule="nonzero">
            <path d="M1298,348.927789 L1298.17462,349.014569 C1298.17462,349.014569 1298.54528,349.253413 1299.15555,349.469965 C1299.64866,349.658145 1299.9771,349.683148 1300.0542,349.686438 L1300.07149,349.686915 L1300.33324,349.708809 L1300.33324,352.700728 C1300.33324,353.807372 1298.23997,355 1298,355 C1297.73825,355 1295.66676,353.806974 1295.66676,352.700728 L1295.66676,349.708411 L1295.94994,349.687313 C1295.94994,349.687313 1296.27739,349.665021 1296.86588,349.469965 C1297.45472,349.253015 1297.84716,349.014569 1297.84716,349.014569 L1298,348.927789 Z M1298.99343,350.992187 C1298.93535,350.992187 1298.87963,351.017791 1298.83845,351.063453 L1297.63077,352.40297 L1297.04799,351.7561 C1296.98513,351.687152 1296.89141,351.666717 1296.80988,351.704182 C1296.72835,351.741646 1296.67478,351.829769 1296.67376,351.928068 C1296.67392,351.992499 1296.69704,352.054219 1296.73804,352.099638 L1297.47365,352.915688 C1297.53435,352.982564 1297.6247,353.004458 1297.70504,352.971418 C1297.73718,352.959476 1297.76646,352.939572 1297.79039,352.912902 L1299.14841,351.40699 C1299.21137,351.337577 1299.2303,351.232533 1299.19625,351.141403 C1299.1622,351.050273 1299.08198,350.99126 1298.99343,350.992187 Z M1298.00036,345 C1299.54157,345.000398 1300.79174,346.179491 1301.08313,347.721229 C1302.12477,347.812388 1303,348.809562 1303,349.988655 C1303,351.214323 1302.14655,352.18602 1301.03849,352.253294 L1301.03849,349.0496 L1300.70176,349.020143 C1300.70176,349.020143 1300.25325,349.020143 1299.52407,348.729549 C1298.73918,348.439752 1298.26246,348.119701 1298.26246,348.119701 L1298.03857,348.003861 L1297.84217,348.120099 C1297.84217,348.120099 1297.77776,348.160871 1297.66047,348.226512 L1297.49507,348.3162 C1297.27421,348.432387 1296.95872,348.584849 1296.5802,348.729947 C1295.82353,348.991481 1295.40287,349.020541 1295.40287,349.020541 L1295.03864,349.049998 L1295.03864,352.209506 C1293.8813,351.972254 1293,350.860834 1293,349.535647 C1293,348.129652 1293.95843,346.995542 1295.24968,346.815214 C1295.75032,345.725688 1296.7916,345 1298.00036,345 Z" id="sbzx_aqjc"></path>
        </g>
    </g>
</svg>