<?xml version="1.0" encoding="UTF-8"?>
<svg width="40px" height="36px" viewBox="0 0 40 36" version="1.1" xmlns="http://www.w3.org/2000/svg" xmlns:xlink="http://www.w3.org/1999/xlink">
    <title>sbzx_swsq</title>
    <defs>
        <linearGradient x1="50%" y1="0%" x2="50%" y2="100%" id="linearGradient-1">
            <stop stop-color="#FFFFFF" offset="0%"></stop>
            <stop stop-color="#00D4FF" offset="100%"></stop>
        </linearGradient>
    </defs>
    <g id="页面-1" stroke="none" stroke-width="1" fill="none" fill-rule="evenodd">
        <g id="大屏4k" transform="translate(-3688.000000, -1412.000000)" fill="url(#linearGradient-1)" fill-rule="nonzero">
            <g id="设备在线" transform="translate(3072.000000, 998.000000)">
                <g id="icon_zmkz" transform="translate(529.383773, 390.000000)">
                    <path d="M118.114297,30.3845698 L118.071393,30.3281373 C117.57818,29.7398171 116.809755,29.388624 115.989128,29.3764799 C115.105574,29.3682978 114.277997,29.7635484 113.792452,30.4256116 C113.041397,31.3972198 112.299611,32.3745641 111.567174,33.3575374 C109.645964,30.6228732 107.665336,27.9221469 105.626425,25.2569061 L105.586381,25.2056038 C104.977085,24.4685186 104.023472,24.0238836 103.000711,24 C101.911825,24.0022246 100.894606,24.4871607 100.283469,25.2953828 C99.0260289,26.924349 97.786525,28.5643918 96.5651373,30.2152723 C96.0560119,29.1456196 95.1750534,27.9117995 93.8764978,26.2034333 L93.8335939,26.152131 C93.4594731,25.6952392 92.8611188,25.4298798 92.2291578,25.4405925 C91.5971967,25.4513052 91.0104517,25.7367537 90.6558508,26.2059984 C88.670834,28.7865035 87.4666667,30.479479 87.4666667,32.2596685 C87.4738325,34.6019237 89.5634808,36.5112425 92.1746461,36.5613653 C89.6232988,40.6860694 88.4763366,43.7872927 88.4763366,46.8936463 C88.4737226,52.8103116 92.9264034,57.9822391 99.3098081,59.4770611 C105.693213,60.9718831 112.396952,58.4124897 115.620155,53.2499998 L115.954805,53.2499998 C121.367318,53.2443458 125.753454,49.3108007 125.75988,44.4567876 C125.77978,40.9041041 123.325682,37.2667718 118.114297,30.3845698 L118.114297,30.3845698 Z M90.501397,32.2750591 C90.501397,31.5311759 91.0477057,30.5795185 92.2661743,28.9352802 C93.4732018,30.5923441 94.0566938,31.5799131 94.0566938,32.2750591 C94.0566938,33.1569385 93.2595329,33.8718429 92.2761852,33.8718429 C91.2928374,33.8718429 90.4956765,33.1569385 90.4956765,32.2750591 L90.501397,32.2750591 L90.501397,32.2750591 Z M102.98927,46.8500393 C109.396241,44.1848854 112.485316,46.8500393 112.485316,46.8500393 C112.485316,51.5538107 108.234254,55.367368 102.98927,55.3687844 L102.98927,55.3687844 C97.7414251,55.3662195 93.4890824,51.5538105 93.4875031,46.8500393 C93.4875031,46.8500393 96.5794386,49.5126281 102.98927,46.8500393 Z M115.963386,32.3725335 L116.25289,32.7564647 L116.25289,32.7564647 L116.811215,33.5008791 C120.986591,39.0903257 122.753631,42.0043812 122.753631,44.4798736 C122.748651,47.5053899 120.264627,50.0675798 116.924431,50.4925018 C117.296264,49.3279399 117.487901,48.119771 117.487901,46.9064718 C117.487901,43.6744277 116.12356,40.3628649 113.294768,35.9380425 C114.001251,34.9607339 114.853607,33.8243883 115.963386,32.3725335 Z M98.1840415,44.3362272 C100.546612,44.3823992 102.903462,44.579913 105.23743,44.9313337 C102.643179,45.2853195 100.907004,46.7782161 97.9037366,46.9116021 C95.7299429,46.9116021 93.9708862,46.3549723 93.9708862,45.6623914 C93.9708862,44.9723756 96.0131081,44.3362272 98.1840415,44.3362272 Z" id="sbzx_swsq"></path>
                </g>
            </g>
        </g>
    </g>
</svg>