<?xml version="1.0" encoding="UTF-8"?>
<svg width="32px" height="29px" viewBox="0 0 32 29" version="1.1" xmlns="http://www.w3.org/2000/svg" xmlns:xlink="http://www.w3.org/1999/xlink">
    <title>sbzx_sl</title>
    <defs>
        <linearGradient x1="50%" y1="0%" x2="50%" y2="100%" id="linearGradient-1">
            <stop stop-color="#FFFFFF" offset="0%"></stop>
            <stop stop-color="#00D4FF" offset="100%"></stop>
        </linearGradient>
    </defs>
    <g id="页面-1" stroke="none" stroke-width="1" fill="none" fill-rule="evenodd">
        <g id="大屏4k" transform="translate(-3974.000000, -1152.000000)" fill-rule="nonzero">
            <g id="设备在线" transform="translate(3072.000000, 998.000000)">
                <g id="图标备份-4" transform="translate(832.000000, 136.000000)">
                    <g id="sbzx_sl" transform="translate(70.400000, 18.000000)">
                        <path d="M4.69366857,12.9350462 C5.12036571,13.3658462 5.80964571,13.3658462 6.23634285,12.9350462 L7.65866668,11.4990462 L9.07004954,12.924 C9.49674668,13.3548 10.1860267,13.3548 10.6127238,12.924 L12.0350476,11.4990462 L13.4464305,12.924 C13.6652495,13.1449231 13.9387733,13.2553846 14.2232381,13.2553846 C14.5077029,13.2553846 14.7812267,13.1449231 15.0000457,12.9350462 L17.1882362,10.7258154 C17.4638084,10.4475934 17.5714316,10.0420761 17.4705652,9.66201783 C17.3696988,9.28195957 17.0756667,8.98510028 16.699228,8.88326397 C16.3227894,8.78142767 15.9211341,8.89008572 15.6455619,9.16830768 L14.2232381,10.5932615 L12.8118553,9.16830768 C12.6074295,8.96149265 12.3299167,8.8452695 12.0405181,8.8452695 C11.7511196,8.8452695 11.4736067,8.96149265 11.269181,9.16830768 L9.84685714,10.5932615 L8.43547428,9.16830768 C8.2310485,8.96149265 7.95353569,8.8452695 7.66413714,8.8452695 C7.37473859,8.8452695 7.09722578,8.96149265 6.8928,9.16830768 L5.4704762,10.5932615 L4.05909334,9.16830768 C3.78352112,8.89008572 3.38186586,8.78142767 3.0054272,8.88326397 C2.62898854,8.98510027 2.33495648,9.28195956 2.23409005,9.66201782 C2.13322362,10.0420761 2.24084683,10.4475934 2.51641906,10.7258154 L4.69366857,12.9350462 L4.69366857,12.9350462 Z M4.69366857,19.5627385 C5.12036571,19.9935385 5.80964571,19.9935385 6.23634285,19.5627385 L7.65866668,18.1267385 L9.07004954,19.5516923 C9.2888686,19.7726154 9.5623924,19.8830769 9.84685714,19.8830769 C10.1313219,19.8830769 10.4048457,19.7726154 10.6236648,19.5627385 L12.8118553,17.3535077 C13.0874275,17.0752857 13.1950507,16.6697684 13.0941843,16.2897101 C12.9933178,15.9096519 12.6992858,15.6127926 12.3228471,15.5109563 C11.9464084,15.40912 11.5447532,15.517778 11.269181,15.796 L9.84685714,17.2209538 L8.43547428,15.796 C8.2310485,15.589185 7.95353569,15.4729618 7.66413714,15.4729618 C7.37473859,15.4729618 7.09722578,15.589185 6.8928,15.796 L5.4704762,17.2209538 L4.05909334,15.796 C3.78352112,15.517778 3.38186586,15.40912 3.00542721,15.5109563 C2.62898856,15.6127926 2.3349565,15.9096519 2.23409007,16.2897101 C2.13322363,16.6697684 2.24084684,17.0752857 2.51641906,17.3535077 L4.69366857,19.5627385 Z M29.5405714,0 C30.1423238,0 30.6346667,0.497076923 30.6346667,1.10461537 L30.6346667,1.10461537 L30.6346667,27.6153846 C30.6346667,28.2229231 30.1423238,28.72 29.5405714,28.72 L29.5405714,28.72 L1.09409526,28.72 C0.492342857,28.72 0,28.2229231 0,27.6153846 L0,27.6153846 L0,25.0637231 C0,24.4561846 0.492342889,23.9591077 1.09409526,23.9591077 C7.92124954,23.9591077 14.0810057,20.6452616 18.1838628,15.4646154 L18.1838628,15.4646154 L15.3173333,15.4646154 L15.3173333,13.2553846 L19.7155962,13.2553846 C21.9037867,9.72061538 23.2385828,5.55621537 23.3261105,1.08252306 C23.3370514,0.48603078 23.8293943,0 24.4202057,0 L24.4202057,0 Z" id="形状" fill="url(#linearGradient-1)"></path>
                        <path d="M28.4464762,26.5107693 L2.18819049,26.5107693 L2.18819049,26.1462462 C6.59739428,25.9363693 10.7002514,24.4672308 14.2232381,22.0923077 L22.976,22.0923077 L22.976,22.6446154 C22.976,23.0643692 23.20576,23.4399385 23.5777524,23.6277231 C23.7309257,23.7050462 23.89504,23.7492308 24.0700952,23.7492308 C24.2998552,23.7492308 24.5296152,23.6719077 24.7265524,23.5283077 L26.9147428,21.8713846 C27.1882666,21.6615077 27.3523809,21.3301231 27.352381,20.9876923 C27.352381,20.6452615 27.1882667,20.3138769 26.9147428,20.104 L24.7265524,18.4470769 C24.3937689,18.1953652 23.9481095,18.1567985 23.5777524,18.3476615 C23.20576,18.5354462 22.976,18.9110154 22.976,19.3307692 L22.976,19.8830769 L17.0241219,19.8830769 C18.4789274,18.5653034 19.7785269,17.0827095 20.897219,15.4646154 L22.976,15.4646154 L22.976,16.0169231 C22.976,16.4366769 23.20576,16.8122462 23.5777524,17.0000308 C23.7309257,17.0773538 23.89504,17.1215385 24.0700952,17.1215385 C24.2998552,17.1215385 24.5296152,17.0442154 24.7265524,16.9006154 L26.9147428,15.2436923 C27.1882666,15.0338154 27.3523809,14.7024308 27.352381,14.36 C27.352381,14.0175692 27.1882667,13.6861846 26.9147428,13.4763077 L24.7265524,11.8193846 C24.3937689,11.5676729 23.9481095,11.5291062 23.5777524,11.7199692 C23.20576,11.9077538 22.976,12.2833231 22.976,12.7030769 L22.976,13.2553846 L22.275779,13.2553846 C24.0919771,9.95258461 25.2298362,6.20793846 25.4705371,2.20923075 L28.4464762,2.20923075 L28.4464762,26.5107693 Z" id="路径" fill="#00D4FF"></path>
                    </g>
                </g>
            </g>
        </g>
    </g>
</svg>