<?xml version="1.0" encoding="UTF-8"?>
<svg width="24px" height="22px" viewBox="0 0 24 22" version="1.1" xmlns="http://www.w3.org/2000/svg" xmlns:xlink="http://www.w3.org/1999/xlink">
    <title>sbzx_wy</title>
    <defs>
        <linearGradient x1="50%" y1="0%" x2="50%" y2="100%" id="linearGradient-1">
            <stop stop-color="#FFFFFF" offset="0%"></stop>
            <stop stop-color="#00D4FF" offset="100%"></stop>
        </linearGradient>
    </defs>
    <g id="页面-1" stroke="none" stroke-width="1" fill="none" fill-rule="evenodd">
        <g id="大屏4k" transform="translate(-3562.000000, -1012.000000)" fill="url(#linearGradient-1)" fill-rule="nonzero">
            <g id="设备在线" transform="translate(3072.000000, 998.000000)">
                <g id="图标备份-2" transform="translate(437.333333, 0.000000)">
                    <g id="水平位移" transform="translate(53.333333, 13.999999)">
                        <path d="M5.74400001,7.69286878 L3.28228573,7.69286878 L3.28228573,7.30822591 C3.28228573,7.01589733 3.10996573,6.7543402 2.83097143,6.62356164 C2.55320357,6.4906392 2.21895902,6.51749814 1.96937143,6.69279736 L0.328228587,7.84672593 C0.123085738,7.99289021 0,8.22367592 0,8.46215448 C0,8.70063305 0.123085714,8.93141876 0.328228587,9.07758306 L1.96937143,10.2315116 C2.11707428,10.3315188 2.28939428,10.3853688 2.46171428,10.3853688 C2.5848,10.3853688 2.71609142,10.3545974 2.83097143,10.3007473 C3.1099657,10.1699688 3.2822857,9.90841163 3.28228573,9.61608305 L3.28228573,9.23144021 L5.74400001,9.23144021 L5.74400001,7.69286878 Z M22.6477714,7.84672593 L21.0066286,6.69279736 C20.757041,6.51749814 20.4227964,6.4906392 20.1450286,6.62356164 C19.8660343,6.75434022 19.6937143,7.01589736 19.6937143,7.30822591 L19.6937143,7.69286878 L17.232,7.69286878 L17.232,9.23144021 L19.6937143,9.23144021 L19.6937143,9.61608305 C19.6937143,9.90841163 19.8660343,10.1699688 20.1450286,10.3007473 C20.2599086,10.3545973 20.3829943,10.3853688 20.5142857,10.3853688 C20.6866057,10.3853688 20.8589257,10.3315188 21.0066286,10.2315116 L22.6477714,9.07758306 C22.8529143,8.93141878 22.976,8.70063307 22.976,8.46215448 C22.976,8.2236759 22.8529143,7.99289021 22.6477714,7.84672593 Z M14.6882286,6.07866491e-06 L8.69805715,6.07866491e-06 C8.29597716,6.07866491e-06 7.95954287,0.296165976 7.88569144,0.702319685 L4.52134858,21.0100064 C4.48032,21.2553909 4.54596572,21.509237 4.70187428,21.6953908 C4.86598858,21.8900061 5.09574857,22.0000061 5.33371429,22.0000061 L17.232,22.0000061 C17.4699657,22.0000061 17.69152,21.8984676 17.8474286,21.7123139 C18.0033371,21.5261601 18.0771886,21.289237 18.0443657,21.0438525 L15.5005943,0.736165845 C15.4491627,0.314326544 15.1005316,-0.00159769306 14.6882286,6.07866491e-06 Z" id="sbzx_wy"></path>
                    </g>
                </g>
            </g>
        </g>
    </g>
</svg>