<?xml version="1.0" encoding="UTF-8"?>
<svg width="35px" height="34px" viewBox="0 0 35 34" version="1.1" xmlns="http://www.w3.org/2000/svg" xmlns:xlink="http://www.w3.org/1999/xlink">
    <title>sbzx_zmkz</title>
    <defs>
        <linearGradient x1="50%" y1="0%" x2="50%" y2="100%" id="linearGradient-1">
            <stop stop-color="#FFFFFF" offset="0%"></stop>
            <stop stop-color="#00D4FF" offset="100%"></stop>
        </linearGradient>
    </defs>
    <g id="页面-1" stroke="none" stroke-width="1" fill="none" fill-rule="evenodd">
        <g id="大屏4k" transform="translate(-3198.000000, -1349.000000)" fill="url(#linearGradient-1)" fill-rule="nonzero">
            <g id="设备在线" transform="translate(3072.000000, 998.000000)">
                <g id="icon_zmkz" transform="translate(47.567546, 331.000000)">
                    <path d="M98.1784136,29.2322915 L98.1784136,23.9393783 L106.711068,23.9393783 C107.634618,23.9393783 108.383303,23.2370803 108.383303,22.3707519 C108.383303,21.5044234 107.634618,20.8021255 106.711068,20.8021255 L85.2939522,20.8021255 C84.3704024,20.8021255 83.6217173,21.5044234 83.6217173,22.3707519 C83.6217173,23.2370803 84.3704024,23.9393783 85.2939522,23.9393783 L93.8266066,23.9393783 L93.8266066,29.2322915 L81.2417004,29.2322915 C79.8781961,29.2322713 78.7720551,30.2677146 78.7692308,31.5467361 L78.7692308,50.8417387 C78.7692308,52.1226243 79.876178,53.1609873 81.2416667,53.1609873 L110.763455,53.1609873 C112.126943,53.158338 113.230769,52.1207506 113.230769,50.8417387 L113.230769,31.5467045 C113.227952,30.2695683 112.124946,29.2349026 110.763455,29.2322599 L98.1784136,29.2322915 Z M108.556746,32.5556527 C108.895885,32.5556527 109.170827,32.8135602 109.170827,33.1316859 L109.170827,43.5870828 L98.1784473,43.5870828 L98.1784473,32.5556527 L108.556746,32.5556527 Z M83.4494269,32.5556211 L93.821519,32.5556211 L93.821519,43.5870512 L82.8537418,43.5870512 L82.8537418,33.1086096 C82.8665368,32.8060676 83.1268258,32.5644516 83.4494672,32.5556211 L83.4494269,32.5556211 Z" id="sbzx_zmkz"></path>
                </g>
            </g>
        </g>
    </g>
</svg>