<?xml version="1.0" encoding="UTF-8"?>
<svg width="10px" height="10px" viewBox="0 0 10 10" version="1.1" xmlns="http://www.w3.org/2000/svg" xmlns:xlink="http://www.w3.org/1999/xlink">
    <title>sbzx_qxkq</title>
    <g id="页面-1" stroke="none" stroke-width="1" fill="none" fill-rule="evenodd">
        <g id="大屏7-地图模式" transform="translate(-1293.000000, -315.000000)" fill="#FFFFFF" fill-rule="nonzero">
            <path d="M1293.89487,324.902165 C1296.24578,323.662988 1298.36799,321.797973 1300.77761,318.412944 C1300.88804,318.25711 1300.48717,318.986699 1300.40151,319.155867 C1299.23062,321.472553 1297.72581,322.952566 1296.76231,323.843406 C1296.69169,323.908555 1296.65802,324.002242 1296.6718,324.095247 C1296.68558,324.188251 1296.74513,324.269255 1296.83188,324.312994 C1297.7045,324.764664 1299.76976,325.48092 1301.32979,322.824231 C1302.71112,320.471295 1302.93026,316.877098 1302.99939,315.153334 C1303.01243,314.849165 1302.81504,315.052083 1302.60503,315.290835 C1301.84067,316.157092 1299.66237,316.342927 1298.12495,317.164601 C1294.94228,318.865448 1294.67184,321.037133 1295.43359,323.0334 C1295.46011,323.1034 1295.46098,323.179651 1295.4362,323.250068 C1295.4114,323.319868 1295.36186,323.379134 1295.2962,323.41757 C1294.86315,323.676738 1294.36879,324.261327 1293.64008,324.30216 C1292.45397,324.369244 1293.14137,325.298002 1293.89487,324.902165 Z" id="sbzx_qxkq"></path>
        </g>
    </g>
</svg>