<?xml version="1.0" encoding="UTF-8"?>
<svg width="28px" height="26px" viewBox="0 0 28 26" version="1.1" xmlns="http://www.w3.org/2000/svg" xmlns:xlink="http://www.w3.org/1999/xlink">
    <title>sbzx_sy</title>
    <defs>
        <linearGradient x1="50%" y1="0%" x2="50%" y2="100%" id="linearGradient-1">
            <stop stop-color="#FFFFFF" offset="0%"></stop>
            <stop stop-color="#00D4FF" offset="100%"></stop>
        </linearGradient>
    </defs>
    <g id="页面-1" stroke="none" stroke-width="1" fill="none" fill-rule="evenodd">
        <g id="大屏4k" transform="translate(-3800.000000, -1036.000000)" fill="url(#linearGradient-1)" fill-rule="nonzero">
            <g id="设备在线" transform="translate(3072.000000, 998.000000)">
                <g id="图标备份-3" transform="translate(666.666667, 21.383419)">
                    <g id="压_面" transform="translate(62.133171, 17.000000)">
                        <path d="M13.3973333,0 C5.99819044,0 0,5.62330354 0,12.56 C0,19.4966965 5.99819044,25.12 13.3973333,25.12 C20.7964762,25.12 26.7946667,19.4966965 26.7946667,12.56 C26.7946667,9.22888089 25.383166,6.03419574 22.8706786,3.67873883 C20.3581912,1.32328191 16.9505271,0 13.3973333,0 Z M13.3973333,17.0591111 C12.5743812,17.058208 11.8093287,16.6619972 11.3703967,16.00938 C10.9314648,15.3567629 10.8798938,14.5387934 11.233764,13.8422448 L7.37053294,10.218591 L8.50030805,9.15942685 L12.3655387,12.781206 C13.2555846,12.381033 14.3162261,12.5326899 15.0385598,13.1634106 C15.7608934,13.7941313 15.9975225,14.7752132 15.6349106,15.6359261 C15.2722987,16.4966391 14.3844392,17.0613492 13.3973333,17.0591111 Z M21.3957413,12.56 C21.3957413,8.41868868 17.8147321,5.06149253 13.3973333,5.06149253 C8.97993459,5.06149253 5.39892537,8.41868868 5.39892537,12.56 L3.79924379,12.56 C3.79924379,7.59042642 8.09645485,3.56179105 13.3973333,3.56179105 C18.6982118,3.56179105 22.9954229,7.59042642 22.9954229,12.56 L21.3957413,12.56 Z" id="sbzx_sy"></path>
                    </g>
                </g>
            </g>
        </g>
    </g>
</svg>