<?xml version="1.0" encoding="UTF-8"?>
<svg width="39px" height="36px" viewBox="0 0 39 36" version="1.1" xmlns="http://www.w3.org/2000/svg" xmlns:xlink="http://www.w3.org/1999/xlink">
    <title>sbzx_qxkq</title>
    <defs>
        <linearGradient x1="50%" y1="0%" x2="50%" y2="100%" id="linearGradient-1">
            <stop stop-color="#FFFFFF" offset="0%"></stop>
            <stop stop-color="#00D4FF" offset="100%"></stop>
        </linearGradient>
    </defs>
    <g id="页面-1" stroke="none" stroke-width="1" fill="none" fill-rule="evenodd">
        <g id="大屏4k" transform="translate(-3420.000000, -1412.000000)" fill="url(#linearGradient-1)" fill-rule="nonzero">
            <g id="设备在线" transform="translate(3072.000000, 998.000000)">
                <g id="图标备份-7" transform="translate(260.742326, 390.000000)">
                    <path d="M90.8934069,59.5487735 C99.8958419,55.100128 108.022508,48.4047222 117.249713,36.2524707 C117.672613,35.6930244 116.13752,38.3122504 115.809523,38.9195638 C111.325788,47.2364666 105.563363,52.5497109 101.873814,55.7478292 C101.603394,55.9817126 101.474458,56.3180491 101.527218,56.6519356 C101.579979,56.9858222 101.808017,57.2766267 102.140207,57.4336475 C105.48178,59.0551443 113.390337,61.6265033 119.364211,52.0889904 C124.653787,43.6419491 125.492926,30.738783 125.757655,24.5504689 C125.807604,23.4585015 125.051712,24.1869784 124.247537,25.044098 C121.320538,28.1539615 112.979092,28.8211087 107.091796,31.7709167 C94.9042939,37.8769593 93.8686892,45.6733077 96.7856979,52.839905 C96.8872605,53.0912071 96.8905904,53.3649469 96.7956877,53.6177448 C96.7007085,53.8683259 96.5110161,54.0810925 96.2595708,54.2190748 C94.6012713,55.1494909 92.7082126,57.2481626 89.9177407,57.3947555 C85.3757317,57.6355867 88.0080324,60.969827 90.8934069,59.5487735 Z" id="sbzx_qxkq"></path>
                </g>
            </g>
        </g>
    </g>
</svg>