<?xml version="1.0" encoding="UTF-8"?>
<svg width="10px" height="10px" viewBox="0 0 10 10" version="1.1" xmlns="http://www.w3.org/2000/svg" xmlns:xlink="http://www.w3.org/1999/xlink">
    <title>sbzx_sptx</title>
    <g id="页面-1" stroke="none" stroke-width="1" fill="none" fill-rule="evenodd">
        <g id="大屏7-地图模式" transform="translate(-1293.000000, -375.000000)" fill="#FFFFFF" fill-rule="nonzero">
            <path d="M1297.76005,375.183446 L1301.82689,379.250075 C1302.07146,379.494743 1302.07146,379.89135 1301.82689,380.136018 L1301.2618,380.70148 L1302.78667,381.214939 C1302.88942,381.249523 1302.96698,381.334783 1302.99172,381.440344 C1303.01647,381.545905 1302.98488,381.656757 1302.90821,381.73341 L1300.24501,384.396878 C1300.16836,384.473559 1300.05752,384.505153 1299.95197,384.480405 C1299.84642,384.455657 1299.76117,384.378086 1299.72659,384.275327 L1299.21287,382.750302 L1298.69163,383.271592 C1298.44699,383.516187 1298.05043,383.516187 1297.80578,383.271592 L1296.30723,381.773196 L1295.79977,382.878563 C1295.77021,382.929494 1295.73362,382.976004 1295.69108,383.016718 C1295.63579,383.071955 1295.56951,383.114967 1295.49655,383.142968 C1295.38498,383.188938 1295.26252,383.201773 1295.14384,383.179934 L1294.25203,383.179934 L1294.25203,384.387768 C1294.24442,384.728087 1293.96639,385 1293.62602,385 C1293.28565,385 1293.00761,384.728087 1293,384.387768 L1293,381.22465 C1293.00761,380.884331 1293.28565,380.612418 1293.62602,380.612418 C1293.96639,380.612418 1294.24442,380.884331 1294.25203,381.22465 L1294.25203,382.064047 L1294.80303,382.064047 L1295.37783,380.843394 L1293.73894,379.204963 C1293.6213,379.087442 1293.5552,378.927971 1293.5552,378.761678 C1293.5552,378.595386 1293.6213,378.435915 1293.73894,378.318393 L1296.8742,375.183446 C1297.11884,374.938851 1297.51541,374.938851 1297.76005,375.183446 Z M1299.90037,378.80045 C1299.73205,378.799808 1299.57037,378.8661 1299.45094,378.98473 C1299.33241,379.10416 1299.26619,379.265789 1299.26683,379.434055 C1299.26748,379.602321 1299.33495,379.763436 1299.45438,379.881951 C1299.57284,380.001129 1299.73392,380.068656 1299.90217,380.069366 C1300.07042,380.070066 1300.23205,380.003891 1300.35151,379.885398 C1300.47008,379.76601 1300.53636,379.604404 1300.53577,379.436138 C1300.53518,379.267872 1300.46777,379.106733 1300.34838,378.988177 C1300.22986,378.868632 1300.0687,378.801101 1299.90037,378.80045 Z" id="sbzx_sptx"></path>
        </g>
    </g>
</svg>