<?xml version="1.0" encoding="UTF-8"?>
<svg width="10px" height="10px" viewBox="0 0 10 10" version="1.1" xmlns="http://www.w3.org/2000/svg" xmlns:xlink="http://www.w3.org/1999/xlink">
    <title>sbzx_wy</title>
    <g id="页面-1" stroke="none" stroke-width="1" fill="none" fill-rule="evenodd">
        <g id="大屏7-地图模式" transform="translate(-1293.000000, -405.000000)" fill="#FFFFFF" fill-rule="nonzero">
            <path d="M1295.5,408.496758 L1294.42857,408.496758 L1294.42857,408.32192 C1294.42857,408.189043 1294.35357,408.070154 1294.23214,408.010709 C1294.11125,407.95029 1293.96577,407.962498 1293.85714,408.04218 L1293.14286,408.566693 C1293.05357,408.633131 1293,408.738033 1293,408.846433 C1293,408.954832 1293.05357,409.059735 1293.14286,409.126173 L1293.85714,409.650686 C1293.92143,409.696144 1293.99643,409.720621 1294.07143,409.720621 C1294.125,409.720621 1294.18214,409.706634 1294.23214,409.682157 C1294.35357,409.622712 1294.42857,409.503822 1294.42857,409.370946 L1294.42857,409.196108 L1295.5,409.196108 L1295.5,408.496758 Z M1302.85714,408.566693 L1302.14286,408.04218 C1302.03423,407.962498 1301.88875,407.95029 1301.76786,408.010709 C1301.64643,408.070154 1301.57143,408.189043 1301.57143,408.32192 L1301.57143,408.496758 L1300.5,408.496758 L1300.5,409.196108 L1301.57143,409.196108 L1301.57143,409.370946 C1301.57143,409.503822 1301.64643,409.622712 1301.76786,409.682157 C1301.81786,409.706634 1301.87143,409.720621 1301.92857,409.720621 C1302.00357,409.720621 1302.07857,409.696144 1302.14286,409.650686 L1302.85714,409.126173 C1302.94643,409.059735 1303,408.954832 1303,408.846433 C1303,408.738033 1302.94643,408.633131 1302.85714,408.566693 Z M1299.39286,405.000003 L1296.78571,405.000003 C1296.61071,405.000003 1296.46429,405.134621 1296.43214,405.319236 L1294.96786,414.55 C1294.95,414.661539 1294.97857,414.776923 1295.04643,414.861539 C1295.11786,414.95 1295.21786,415.000003 1295.32143,415.000003 L1300.5,415.000003 C1300.60357,415.000003 1300.7,414.953846 1300.76786,414.869231 C1300.83571,414.784616 1300.86786,414.676923 1300.85357,414.565385 L1299.74643,405.334621 C1299.72404,405.142876 1299.57231,404.999274 1299.39286,405.000003 Z" id="sbzx_wy"></path>
        </g>
    </g>
</svg>