<?xml version="1.0" encoding="UTF-8"?>
<svg width="10px" height="10px" viewBox="0 0 10 10" version="1.1" xmlns="http://www.w3.org/2000/svg" xmlns:xlink="http://www.w3.org/1999/xlink">
    <title>sbzx_zmkz</title>
    <g id="页面-1" stroke="none" stroke-width="1" fill="none" fill-rule="evenodd">
        <g id="大屏7-地图模式" transform="translate(-1293.000000, -225.000000)" fill="#FFFFFF" fill-rule="nonzero">
            <path d="M1298.63213,227.605211 L1298.63213,225.969519 L1301.10812,225.969519 C1301.37612,225.969519 1301.59337,225.752485 1301.59337,225.484759 C1301.59337,225.217034 1301.37612,225 1301.10812,225 L1294.89333,225 C1294.62534,225 1294.40809,225.217034 1294.40809,225.484759 C1294.40809,225.752485 1294.62534,225.969519 1294.89333,225.969519 L1297.36933,225.969519 L1297.36933,227.605211 L1293.71746,227.605211 C1293.3218,227.605205 1293.00082,227.925192 1293,228.320454 L1293,234.283273 C1293,234.67911 1293.32121,235 1293.71745,235 L1302.28404,235 C1302.67969,234.999181 1303,234.678531 1303,234.283273 L1303,228.320444 C1302.99918,227.925765 1302.67911,227.606018 1302.28404,227.605201 L1298.63213,227.605211 Z M1301.6437,228.632244 C1301.74211,228.632244 1301.82189,228.711946 1301.82189,228.810258 L1301.82189,232.041335 L1298.63214,232.041335 L1298.63214,228.632244 L1301.6437,228.632244 Z M1294.35809,228.632234 L1297.36785,228.632234 L1297.36785,232.041325 L1294.18524,232.041325 L1294.18524,228.803126 C1294.18895,228.709631 1294.26448,228.634963 1294.3581,228.632234 L1294.35809,228.632234 Z" id="sbzx_zmkz"></path>
        </g>
    </g>
</svg>