<?xml version="1.0" encoding="UTF-8"?>
<svg width="10px" height="10px" viewBox="0 0 10 10" version="1.1" xmlns="http://www.w3.org/2000/svg" xmlns:xlink="http://www.w3.org/1999/xlink">
    <title>sbzx_sy</title>
    <g id="页面-1" stroke="none" stroke-width="1" fill="none" fill-rule="evenodd">
        <g id="大屏7-地图模式" transform="translate(-1293.000000, -435.000000)" fill="#FFFFFF" fill-rule="nonzero">
            <path d="M1298,435 C1295.23858,435 1293,437.238576 1293,440 C1293,442.761424 1295.23858,445 1298,445 C1300.76142,445 1303,442.761424 1303,440 C1303,438.673918 1302.47322,437.402148 1301.53553,436.464466 C1300.59785,435.526784 1299.32608,435 1298,435 Z M1298,441.791047 C1297.69287,441.790688 1297.40734,441.632961 1297.24353,441.373161 C1297.07972,441.113361 1297.06047,440.787736 1297.19254,440.510448 L1295.75075,439.06791 L1296.17239,438.646269 L1297.61493,440.08806 C1297.9471,439.928755 1298.34294,439.989128 1298.61252,440.240211 C1298.8821,440.491294 1298.97041,440.881852 1298.83508,441.224493 C1298.69975,441.567133 1298.3684,441.791938 1298,441.791047 Z M1300.98507,440 C1300.98507,438.351389 1299.64861,437.014925 1298,437.014925 C1296.35139,437.014925 1295.01493,438.351389 1295.01493,440 L1294.41791,440 C1294.41791,438.021667 1296.02167,436.41791 1298,436.41791 C1299.97833,436.41791 1301.58209,438.021667 1301.58209,440 L1300.98507,440 Z" id="sbzx_sy"></path>
        </g>
    </g>
</svg>