<?xml version="1.0" encoding="UTF-8"?>
<svg width="31px" height="29px" viewBox="0 0 31 29" version="1.1" xmlns="http://www.w3.org/2000/svg" xmlns:xlink="http://www.w3.org/1999/xlink">
    <title>sbzx_aqjc</title>
    <defs>
        <linearGradient x1="50%" y1="0%" x2="50%" y2="100%" id="linearGradient-1">
            <stop stop-color="#FFFFFF" offset="0%"></stop>
            <stop stop-color="#00D4FF" offset="100%"></stop>
        </linearGradient>
    </defs>
    <g id="页面-1" stroke="none" stroke-width="1" fill="none" fill-rule="evenodd">
        <g id="大屏4k" transform="translate(-3143.000000, -1152.000000)" fill="url(#linearGradient-1)" fill-rule="nonzero">
            <g id="设备在线" transform="translate(3072.000000, 998.000000)">
                <g id="图标" transform="translate(0.792765, 136.000000)">
                    <g id="bs_sbaq" transform="translate(70.400000, 18.000000)">
                        <path d="M15.3173333,11.2806114 L15.8522695,11.5298436 C15.8522695,11.5298436 16.9877781,12.2158035 18.8573198,12.8377405 C20.4434816,13.4052165 21.4734568,13.4560116 21.6399291,13.4604511 L21.6632732,13.4608208 L22.4651305,13.5237005 L22.4651305,22.1164922 C22.4651305,25.2947733 16.0524603,28.72 15.3173333,28.72 C14.5154761,28.72 8.16953617,25.29363 8.16953617,22.1164922 L8.16953617,13.5225572 L9.03702977,13.4619641 C9.03702977,13.4619641 10.0401718,13.3979412 11.8429832,12.8377405 C13.6468885,12.2146603 14.8491275,11.5298436 14.8491275,11.5298436 L15.3173333,11.2806114 Z M18.3606715,17.2095603 C18.1827482,17.2095603 18.0120396,17.2830952 17.885902,17.4142367 L14.1862004,21.2613288 L12.4008921,19.4035206 C12.2083267,19.2055013 11.9212167,19.1468108 11.6714522,19.2544096 C11.4216876,19.3620085 11.2575518,19.6150963 11.254444,19.8974117 C11.2549283,20.0824582 11.3257635,20.2597172 11.4513531,20.3901596 L13.7048673,22.7338561 C13.890837,22.9259249 14.1676035,22.9888046 14.4137397,22.8939135 C14.5121942,22.8596155 14.6018973,22.8024521 14.6751912,22.7258533 L18.835441,18.4008757 C19.0283385,18.2015205 19.0863036,17.8998344 18.9819967,17.6381093 C18.8776898,17.3763842 18.631946,17.2068988 18.3606715,17.2095603 Z M15.3184273,0 L15.3184273,0.00114324873 L15.3173333,0.00114324873 C20.0398679,0.00114324873 23.8697481,3.38749889 24.7624023,7.81537039 C27.9534223,8.07717844 30.6346667,10.9410612 30.6346667,14.3274169 C30.6346667,17.8475347 28.0201525,20.6382485 24.62566,20.8314605 L24.62566,11.630451 L23.5940755,11.5458493 L23.5716674,11.5455101 C23.385804,11.5412699 22.0546198,11.4840282 19.9862648,10.7112647 C17.581787,9.87896659 16.1213785,8.95978024 16.1213785,8.95978024 L15.4354787,8.62708967 L14.8338123,8.96092352 C14.8338123,8.96092352 13.2869826,9.87896659 10.967832,10.7124079 C8.64977537,11.4635341 7.36111527,11.5469925 7.36111527,11.5469925 L6.24529752,11.6315943 L6.24529752,20.7057012 C2.69984136,20.0243143 0,16.832314 0,13.0263795 C0,8.98836192 2.93613218,5.73119539 6.89181546,5.21329564 C8.42551789,2.08417497 11.6154439,0 15.3184273,0 Z" id="sbzx_aqjc"></path>
                    </g>
                </g>
            </g>
        </g>
    </g>
</svg>