<?xml version="1.0" encoding="UTF-8"?>
<svg width="1607px" height="1453px" viewBox="0 0 1607 1453" version="1.1" xmlns="http://www.w3.org/2000/svg" xmlns:xlink="http://www.w3.org/1999/xlink">
    <title>形状结合</title>
    <g id="logo" stroke="none" stroke-width="1" fill="none" fill-rule="evenodd">
        <g id="画板" transform="translate(-4706.000000, -1481.000000)" fill="#274C77">
            <g id="编组-4备份-2" transform="translate(4705.966721, 1481.490616)">
                <path d="M1232.78667,3.2521541e-11 L1286.38391,89.3243918 L1135.1478,731.046475 C1210.52479,779.265768 1277.52062,830.846448 1334.19988,883.521072 L1606.28702,787.435672 L1413.03273,965.156297 C1520.8785,1091.02264 1565.41918,1216.50043 1521.02374,1311.56183 C1432.52155,1501.06635 1024.09878,1497.93382 608.785799,1304.56541 C193.473083,1111.19643 -71.4593217,800.816356 17.0428165,611.311811 C89.2291143,456.743554 374.250705,430.331985 702.248546,530.774171 L1232.78667,0 L778.314595,556.092475 C828.156606,574.002827 878.667517,594.742858 929.280759,618.308224 C944.661976,625.469695 959.83693,632.791661 974.795306,640.262036 L1232.78667,3.2521541e-11 Z M1378.4779,996.935013 L1049.79089,1299.18797 C1231.86629,1323.92491 1373.16992,1291.51501 1415.73288,1200.37745 C1442.2025,1143.69958 1426.69956,1072.41211 1378.4779,996.935013 Z M763.013531,574.812967 L396.738894,1022.99595 C471.984834,1079.70864 561.350787,1133.49425 660.78536,1179.79084 C688.306631,1192.60465 715.772263,1204.45974 743.052829,1215.35257 L966.30018,661.328364 C949.417126,652.725264 932.198887,644.329957 914.667665,636.167446 C863.650269,612.41391 812.824071,591.954923 763.013531,574.812967 Z M1128.95938,757.308624 L1077.867,974.04 L1297.3633,896.53254 C1251.31663,849.18603 1194.46902,801.975243 1128.95938,757.308624 Z M159.720143,615.580839 C119.650389,701.379901 175.764768,820.658263 295.961556,937.268799 L683.144177,549.893887 C428.336343,478.691276 213.932992,499.498064 159.720143,615.580839 Z" id="形状结合"></path>
            </g>
        </g>
    </g>
</svg>